<svg xmlns="http://www.w3.org/2000/svg" xml:space="preserve" width="220" height="220"><path d="M0 0h220v220H0z"/><path fill="#1f0009" fill-rule="evenodd" d="m83 140-28 14 4-31q18 4 24 17m7-2-2-3q-8-16-30-19l4-18 41 33zm28-79-1-1-52 34 40 30-2-3-1 1-2-3 7-5 1 1-3 2 3 5zm48 25q-14-2-28-11-5 16 3 28 20 25 49 10 25-20 11-50c-10-15-32-19-49-9q-7 5-12 15 11 10 28 10l7 1-2 6zm-80 65q7 23-15 39-29 15-49-10c-10-15-5-38 11-48q8-5 18-6l-2 30q-4 4-2 7t7 0l1-1zm48-89-29-22v-6l-11-4-15 10 3 5 12-8 5 1v6l10 10-51 34-1-2 9-12q0-4-3-2L33 87q-4 3 2 5l15-3 4 4-2 22q-14 3-23 9c-21 13-28 39-15 59s40 25 61 11q26-19 19-50l12-4 5 1 5 10-3 2 1 2 8-4-2-3-1 1-3-11q2-6-1-10l11-63 5 4q-7 19 4 35c12 20 40 26 59 13 21-14 27-41 14-60s-39-24-60-11q-9 6-14 14" clip-rule="evenodd"/></svg>